<?xml version="1.0" standalone="no"?>
<!DOCTYPE svg PUBLIC "-//W3C//DTD SVG 20010904//EN"
 "http://www.w3.org/TR/2001/REC-SVG-20010904/DTD/svg10.dtd">
<svg version="1.0" xmlns="http://www.w3.org/2000/svg"
 width="128.000000pt" height="128.000000pt" viewBox="0 0 128.000000 128.000000"
 preserveAspectRatio="xMidYMid meet">
<metadata>
Created by potrace 1.11, written by Peter Selinger 2001-2013
</metadata>
<g transform="translate(0.000000,128.000000) scale(0.100000,-0.100000)"
fill="#000000" stroke="none">
<path d="M538 1270 c-240 -43 -431 -208 -505 -434 -22 -69 -26 -99 -26 -196 0
-97 4 -127 26 -196 64 -194 217 -347 411 -411 69 -22 99 -26 196 -26 97 0 127
4 196 26 194 64 347 217 411 411 22 69 26 99 26 196 0 97 -4 127 -26 196 -83
253 -309 425 -576 439 -47 2 -107 0 -133 -5z"/>
</g>
</svg>
